<svg version="1" xmlns="http://www.w3.org/2000/svg" width="933.333" height="933.333" viewBox="0 0 700.000000 700.000000"><path d="M329.8.5c-.2.2-4 .5-8.5.9-20.3 1.4-25.7 6.3-26.8 24.4-1.5 23.9-8 38.9-23.4 54.2-11.4 11.3-24.6 18.4-38.6 20.8-5.3.9-21.8.9-27.7-.1-15-2.4-29.9-9.8-41.6-20.8-7-6.6-11.6-8.9-17.5-8.9-6.1 0-9.2 1.6-19.7 10.3-21 17.5-48.2 46.1-51.6 54.4-1.8 4.2-1.8 10.5 0 14.8.8 1.9 4.1 6.2 7.3 9.7 7 7.5 11.9 14.4 15.1 21.3 15 31.8 7.5 68.2-18.5 90.5-11.3 9.6-22.5 14.9-39.8 18.6-1.1.2-5.1.7-9 1-3.8.3-8.8.7-10.9.9-7.9.7-15.3 8.7-16.2 17.3-.2 2-.7 7.1-1.1 11.2-1 10-.9 46 .1 58.4.8 10.9 2.5 16.3 5.9 19.2 6.3 5.4 11.3 7.1 22.8 7.8 17.5 1 31.1 6.5 45 18 13.4 11 23.6 28.7 26.5 45.6 1 5.5 1 21.1 0 26.5-2.6 14.8-10 29-21.6 41.5-7.8 8.3-10 14.6-7.8 22.2 2.4 8.4 31.1 39.8 52.8 57.8 8.7 7.3 12.2 9 18.5 9 5.8 0 9.6-2 16.3-8.3 16.5-15.8 38.4-23.7 61.6-22.4 11.5.7 19.3 2.8 29.3 8.1 17.5 9.2 31 25 37.2 43.7 2.9 8.9 3.1 10.1 3.7 20.4.6 13.4 1.2 16.2 3.9 20.5 2.4 3.8 7.4 7.1 12.5 8.3 13.4 3.1 70.9 2.8 83.2-.4 9.1-2.4 13.7-9.7 14.2-22.9.3-4.9.7-9.7 1-10.7.2-1 .7-3.4 1-5.3.7-4.7 4.3-14 8.6-22 5.2-9.8 19.3-23.4 29.7-28.8 14-7.3 19.7-8.6 35.3-8.7 22.1 0 39.6 6.8 56.3 22 3.4 3.1 7.7 6.4 9.6 7.2 4.1 1.7 11.5 1.5 15.6-.5 12.4-6.1 58.7-52.2 63.1-62.9 1.8-4.2 1.8-10.5-.1-14.9-.8-1.9-4.1-6.3-7.3-9.7-30.3-32-30.4-78.3-.2-108.6 9.9-9.9 25.7-19 36-20.7 1.9-.3 3.8-.8 4.1-1 .7-.4 8.5-1.1 20.1-1.8 8.2-.5 12.8-3 16.2-8.9 4-6.9 5-16.9 5-47.2.1-38.2-1.5-46.6-9.5-52.4-5.1-3.7-8.7-4.8-19.9-5.6-28.5-2.2-52-17.6-64.5-42.5-6.1-12-7.9-20.5-7.8-36 .2-20 7.3-36.8 22.7-53.5 5.9-6.5 8.5-12 8.1-17.7-.2-4-2.4-9.3-5.2-12.3-1-1.1-3.6-4.2-5.8-7-9-11.2-29.1-31.4-42-42-3.3-2.8-6.2-5.3-6.5-5.7-1.1-1.5-8.1-3.8-11.3-3.8-7 0-9.7 1.3-16.5 7.4-16.2 15-32.5 22.1-53.2 23.3-24.4 1.4-46.9-8.4-62.2-27.1-5.7-6.9-11.6-17.9-14.3-26.2-2.4-7.9-2.3-6.9-4-29.6-.5-6.3-3.6-12.3-7.7-15-5.8-3.8-16.1-5-47-5.3-12.5-.1-22.9-.1-23 0zm42.1 235.7c5.3 1 13 3.1 17.1 4.5 27 9.2 51.6 30.4 64.7 55.8 3.9 7.6 8.8 20 9.7 24.8.3 1.2 1.1 5.3 2 9.2 1.5 7.1 1.7 33.3.2 40-6.9 31.3-19.4 52.4-42.4 71.5-13.3 11-35.9 21.2-52.5 23.5-2.3.3-5 .8-6.1 1.2-2.3.6-25.3.6-28.6-.2-1.4-.3-4.5-.8-7-1.1-6.3-.9-21.2-5.9-29.5-9.9-30.5-14.7-53.6-43.2-62-76.4-2.5-10-3-14.5-3-29.1 0-15.4.5-19.1 4.1-31.5 5-17.6 14.6-34.3 27.5-47.9 15.1-15.9 38.5-29.5 57-33.2 19.3-3.8 34.3-4.2 48.8-1.2z"/></svg>